<?xml version="1.0" encoding="UTF-8"?>
<svg width="120px" height="123px" viewBox="0 0 120 123" version="1.1" xmlns="http://www.w3.org/2000/svg" xmlns:xlink="http://www.w3.org/1999/xlink">
    <!-- Generator: Sketch 53.2 (72643) - https://sketchapp.com -->
    <title>logo与文字</title>
    <desc>Created with Sketch.</desc>
    <g id="Page-1" stroke="none" stroke-width="1" fill="none" fill-rule="evenodd">
        <g id="1920效果" transform="translate(-900.000000, -133.000000)" fill="#FFFFFF">
            <g id="logo与文字" transform="translate(895.000000, 132.000000)">
                <g id="logo文字" transform="translate(4.000000, 1.000000)">
                    <g id="Group-5">
                        <g id="Group-22" transform="translate(0.661133, 0.000000)">
                            <path d="M60.5436453,82.5853542 L60.5436453,92.9430721 L120.338867,61.5 L120.338867,87.8387552 C120.338867,90.9990844 118.47884,93.9211599 115.455004,95.5112314 L65.472298,121.794432 C62.4244633,123.397124 58.6595911,123.402162 55.6065122,121.807634 L0.338867188,92.9430721 L0.338867188,82.5853542 L55.6270957,111.460666 C57.1935999,112.278802 59.1977998,111.795034 60.1036015,110.38014 C60.3918664,109.92986 60.5436453,109.418911 60.5436453,108.898774 L60.5436453,92.9430721 L0.338867188,61.8699185 L0.338867188,51.5122006 L60.5436453,82.5853542 L60.5436453,66.6218324 C60.5436453,63.4521077 58.6726347,60.5228297 55.6345911,58.9361546 L0.338867188,30.0569279 L55.6065122,1.19236607 C58.6595911,-0.402161547 62.4244633,-0.397123694 65.472298,1.20556769 L115.455004,27.4887686 C118.47884,29.0788401 120.338867,32.0009156 120.338867,35.1612448 L120.338867,51.1422821 L60.5436453,82.5853542 Z" id="logo"></path>
                        </g>
                    </g>
                </g>
            </g>
        </g>
    </g>
</svg>