<?xml version="1.0" standalone="no"?><!DOCTYPE svg PUBLIC "-//W3C//DTD SVG 1.1//EN" "http://www.w3.org/Graphics/SVG/1.1/DTD/svg11.dtd"><svg t="1588139439033" class="icon" viewBox="0 0 1024 1024" version="1.1" xmlns="http://www.w3.org/2000/svg" p-id="1080" xmlns:xlink="http://www.w3.org/1999/xlink" width="200" height="200"><defs><style type="text/css"></style></defs><path d="M513.706667 687.536911v86.232455L1011.512195 512v219.277528c0 26.307642-15.484878 50.633886-40.660293 63.87096l-416.118634 218.811317c-25.366894 13.345301-56.711285 13.386927-82.12813 0.116553L12.487805 773.769366V687.536911l460.283837 240.398569c13.045593 6.810016 29.720976 2.780618 37.271935-8.99122 2.397659-3.754667 3.663089-8.008846 3.66309-12.337951V773.769366L12.487805 515.080325V428.84787l501.218862 258.689041V554.641691c0-26.390894-15.576455-50.78374-40.876748-63.987512L12.487805 250.222309 472.605138 9.931967c25.416846-13.270374 56.761236-13.237073 82.12813 0.116553l416.118634 218.811317C996.027317 242.088585 1011.512195 266.406504 1011.512195 292.714146v133.045074L513.706667 687.536911z" p-id="1081" fill="#49AF4F"></path></svg>